<svg viewBox="0 0 16 16"><title>Are.na</title>
<path fill="#828282" d="M 15.810185,9.8721308 13.599908,8.1351204 c -0.13528,-0.1060189 -0.13528,-0.2801007 0,-0.3864377 L 15.810185,6.0119902 C 15.945783,5.9058657 16.002293,5.7263754 15.936031,5.6133593 15.869659,5.5008738 15.684342,5.4606929 15.524678,5.5245182 l -2.628097,1.046723 C 12.736704,6.6351693 12.586158,6.5477045 12.562197,6.3771213 L 12.167065,3.5711246 C 12.14289,3.4008585 12.014822,3.261232 11.881982,3.261232 c -0.132312,0 -0.260489,0.1396265 -0.284236,0.310105 l -0.395451,2.8059967 c -0.02417,0.1705842 -0.174506,0.258049 -0.334488,0.1941199 L 8.2830713,5.5419065 c -0.1603002,-0.063828 -0.4214242,-0.063828 -0.5813005,0 L 5.116717,6.5714536 C 4.9568408,6.6353817 4.8062943,6.5479169 4.7823341,6.3773337 L 4.3872025,3.571337 C 4.3629238,3.4008585 4.2347475,3.261232 4.1023302,3.261232 c -0.1326294,0 -0.2610181,0.1396265 -0.2848721,0.310105 L 3.4221143,6.3773337 C 3.398048,6.5479179 3.2476075,6.6353827 3.0877313,6.5714536 L 0.4596339,5.5247307 C 0.29986373,5.4608026 0.11486111,5.5010942 0.04849341,5.6135717 -0.01776827,5.7265878 0.03873974,5.9060771 0.17401954,6.0122017 L 2.3844033,7.7488951 c 0.135492,0.1062303 0.135492,0.2803121 0,0.3864367 L 0.17391353,9.8721308 C 0.03863367,9.9783611 -0.0178743,10.168558 0.04838739,10.294615 0.1147551,10.420566 0.29975772,10.471348 0.45931584,10.407312 L 3.0638771,9.3613327 c 0.1599823,-0.063938 0.3089385,0.023108 0.3313084,0.1938017 l 0.3760483,2.8302746 c 0.022688,0.170373 0.1715382,0.309893 0.3308844,0.309893 0.158922,0 0.3078782,-0.139414 0.3306723,-0.309893 L 4.8091568,9.5551344 C 4.8315267,9.3844445 4.9810131,9.2974036 5.1401472,9.3613327 l 2.5618357,1.0281693 c 0.1595582,0.06425 0.4206821,0.06425 0.5805583,0 L 10.843952,9.3613327 c 0.159452,-0.063938 0.308515,0.023108 0.331309,0.1938017 l 0.376366,2.8302746 c 0.02247,0.170373 0.171432,0.309893 0.330249,0.309893 0.15924,0 0.308195,-0.139414 0.330884,-0.309893 l 0.376154,-2.8302746 c 0.023,-0.1706899 0.17175,-0.2577308 0.331308,-0.1938017 l 2.604667,1.0459793 c 0.15924,0.06404 0.344562,0.01326 0.410929,-0.112697 0.06647,-0.126057 0.01,-0.3162539 -0.125633,-0.4224842 z m -5.623548,-1.714853 -1.9465033,1.498469 c -0.136234,0.1049577 -0.3597214,0.1049577 -0.4955314,0 L 5.7977811,8.1572778 C 5.6615471,8.0521076 5.660487,7.8792974 5.7956569,7.7728546 L 7.7462948,6.2363259 c 0.1350678,-0.1065494 0.3565408,-0.1065494 0.4917147,0 l 1.9507435,1.5365287 c 0.135386,0.1064428 0.134325,0.279253 -0.0021,0.3844232 z"/>
</svg>