<?xml version="1.0" encoding="UTF-8" standalone="no"?>
<svg
   xmlns:dc="http://purl.org/dc/elements/1.1/"
   xmlns:cc="http://creativecommons.org/ns#"
   xmlns:rdf="http://www.w3.org/1999/02/22-rdf-syntax-ns#"
   xmlns:svg="http://www.w3.org/2000/svg"
   xmlns="http://www.w3.org/2000/svg"
   version="1.1"
   id="svg2"
   viewBox="0 0 275 165"
   height="165"
   width="275">
  <title>site logo: scalar vector tensor</title>
  <defs
     id="defs4" />
  <metadata
     id="metadata7">
    <rdf:RDF>
      <cc:Work
         rdf:about="">
        <dc:format>image/svg+xml</dc:format>
        <dc:type
           rdf:resource="http://purl.org/dc/dcmitype/StillImage" />
        <dc:title></dc:title>
      </cc:Work>
    </rdf:RDF>
  </metadata>
  <g
     transform="translate(0,-887.3622)"
     id="layer1">
    <g
       id="text3336"
       style="font-style:normal;font-weight:normal;font-size:40px;line-height:89.99999762%;font-family:sans-serif;letter-spacing:0px;word-spacing:0px;fill:#fff;fill-opacity:1;stroke:none;stroke-width:1px;stroke-linecap:butt;stroke-linejoin:miter;stroke-opacity:1">
      <path
         id="path3345"
         style="font-style:normal;font-variant:normal;font-weight:normal;font-stretch:normal;font-size:60px;line-height:89.99999762%;font-family:'Varela Round';-inkscape-font-specification:'Varela Round, Normal';text-align:start;writing-mode:lr-tb;text-anchor:start"
         d="m 14.497143,936.81936 q -6,0 -10.92,-2.7 -1.02,-0.72 -1.02,-1.98 0,-0.96 0.66,-1.68 0.66,-0.72 1.68,-0.72 0.54,0 1.08,0.24 1.92,0.84 3.84,1.32 1.92,0.48 4.32,0.48 6.66,0 6.66,-4.26 0,-1.38 -1.56,-2.1 -1.5,-0.72 -4.98,-1.62 -3.54,-0.84 -5.88,-1.74 -2.28,-0.9 -3.96,-2.7 -1.62,-1.86 -1.62,-4.86 0,-4.2 3,-6.84 3.06,-2.64 8.7,-2.64 4.62,0 8.7,1.5 0.84,0.24 1.26,0.9 0.48,0.66 0.48,1.38 0,0.96 -0.72,1.68 -0.66,0.72 -1.68,0.72 -0.3,0 -0.78,-0.12 -3.48,-1.08 -6.84,-1.08 -3.24,0 -5.1,1.2 -1.8,1.14 -1.8,3 0,1.8 1.68,2.64 1.68,0.84 5.22,1.62 3.54,0.9 5.76,1.8 2.22,0.84 3.78,2.7 1.62,1.86 1.62,4.98 0,3.84 -3.06,6.36 -3,2.52 -8.52,2.52 z" />
      <path
         id="path3347"
         style="font-style:normal;font-variant:normal;font-weight:normal;font-stretch:normal;font-size:60px;line-height:89.99999762%;font-family:'Varela Round';-inkscape-font-specification:'Varela Round, Normal';text-align:start;writing-mode:lr-tb;text-anchor:start"
         d="m 47.585268,936.81936 q -4.32,0 -7.98,-1.92 -3.66,-1.92 -5.88,-5.52 -2.16,-3.6 -2.16,-8.46 0,-4.86 2.16,-8.46 2.22,-3.6 5.88,-5.52 3.66,-1.92 7.98,-1.92 3.18,0 5.46,0.84 2.34,0.78 4.32,2.04 1.2,0.78 1.2,2.1 0,0.9 -0.72,1.68 -0.66,0.72 -1.56,0.72 -0.66,0 -1.32,-0.36 -1.98,-1.02 -3.42,-1.44 -1.38,-0.48 -3.48,-0.48 -5.16,0 -8.1,3 -2.94,2.94 -2.94,7.8 0,4.86 2.94,7.86 2.94,2.94 8.1,2.94 2.1,0 3.48,-0.42 1.44,-0.48 3.42,-1.5 0.66,-0.36 1.32,-0.36 0.9,0 1.56,0.78 0.72,0.72 0.72,1.62 0,1.32 -1.2,2.1 -1.98,1.26 -4.32,2.1 -2.28,0.78 -5.46,0.78 z" />
      <path
         id="path3349"
         style="font-style:normal;font-variant:normal;font-weight:normal;font-stretch:normal;font-size:60px;line-height:89.99999762%;font-family:'Varela Round';-inkscape-font-specification:'Varela Round, Normal';text-align:start;writing-mode:lr-tb;text-anchor:start"
         d="m 73.21746,936.81936 q -2.64,0 -4.92,-1.08 -2.22,-1.08 -3.54,-3.12 -1.32,-2.1 -1.32,-4.8 0,-4.44 3.48,-7.08 3.54,-2.64 10.32,-2.64 l 7.26,0 0,-0.48 q 0,-3.96 -1.98,-5.7 -1.92,-1.74 -6.06,-1.74 -2.28,0 -4.08,0.36 -1.74,0.36 -3.9,1.08 -0.48,0.12 -0.78,0.12 -0.9,0 -1.56,-0.66 -0.66,-0.66 -0.66,-1.62 0,-1.62 1.56,-2.28 5.1,-2.16 10.38,-2.16 4.14,0 6.96,1.68 2.88,1.68 4.2,4.38 1.38,2.64 1.38,5.76 l 0,16.98 q 0,1.14 -0.84,1.92 -0.78,0.78 -1.92,0.78 -1.14,0 -1.92,-0.78 -0.78,-0.78 -0.78,-1.92 l 0,-1.56 q -4.44,4.56 -11.28,4.56 z m 2.04,-4.8 q 2.64,0 5.1,-1.26 2.46,-1.32 4.14,-3.24 l 0,-5.04 -6.54,0 q -9.06,0 -9.06,4.74 0,2.16 1.44,3.48 1.5,1.32 4.92,1.32 z" />
      <path
         id="path3351"
         style="font-style:normal;font-variant:normal;font-weight:normal;font-stretch:normal;font-size:60px;line-height:89.99999762%;font-family:'Varela Round';-inkscape-font-specification:'Varela Round, Normal';text-align:start;writing-mode:lr-tb;text-anchor:start"
         d="m 101.86746,936.51936 q -1.14,0 -1.92,-0.78 -0.78,-0.78 -0.78,-1.92 l 0,-38.94 q 0,-1.14 0.78,-1.92 0.78,-0.84 1.92,-0.84 1.2,0 1.98,0.78 0.78,0.78 0.78,1.98 l 0,38.94 q 0,1.14 -0.84,1.92 -0.78,0.78 -1.92,0.78 z" />
      <path
         id="path3353"
         style="font-style:normal;font-variant:normal;font-weight:normal;font-stretch:normal;font-size:60px;line-height:89.99999762%;font-family:'Varela Round';-inkscape-font-specification:'Varela Round, Normal';text-align:start;writing-mode:lr-tb;text-anchor:start"
         d="m 121.85027,936.81936 q -2.64,0 -4.92,-1.08 -2.22,-1.08 -3.54,-3.12 -1.32,-2.1 -1.32,-4.8 0,-4.44 3.48,-7.08 3.54,-2.64 10.32,-2.64 l 7.26,0 0,-0.48 q 0,-3.96 -1.98,-5.7 -1.92,-1.74 -6.06,-1.74 -2.28,0 -4.08,0.36 -1.74,0.36 -3.9,1.08 -0.48,0.12 -0.78,0.12 -0.9,0 -1.56,-0.66 -0.66,-0.66 -0.66,-1.62 0,-1.62 1.56,-2.28 5.1,-2.16 10.38,-2.16 4.14,0 6.96,1.68 2.88,1.68 4.2,4.38 1.38,2.64 1.38,5.76 l 0,16.98 q 0,1.14 -0.84,1.92 -0.78,0.78 -1.92,0.78 -1.14,0 -1.92,-0.78 -0.78,-0.78 -0.78,-1.92 l 0,-1.56 q -4.44,4.56 -11.28,4.56 z m 2.04,-4.8 q 2.64,0 5.1,-1.26 2.46,-1.32 4.14,-3.24 l 0,-5.04 -6.54,0 q -9.06,0 -9.06,4.74 0,2.16 1.44,3.48 1.5,1.32 4.92,1.32 z" />
      <path
         id="path3355"
         style="font-style:normal;font-variant:normal;font-weight:normal;font-stretch:normal;font-size:60px;line-height:89.99999762%;font-family:'Varela Round';-inkscape-font-specification:'Varela Round, Normal';text-align:start;writing-mode:lr-tb;text-anchor:start"
         d="m 150.50027,936.51936 q -1.14,0 -1.92,-0.78 -0.78,-0.78 -0.78,-1.92 l 0,-25.74 q 0,-1.14 0.78,-1.92 0.78,-0.84 1.92,-0.84 1.14,0 1.92,0.84 0.84,0.78 0.84,1.92 l 0,2.58 q 4.2,-5.64 9.42,-5.64 l 0.3,0 q 1.14,0 1.86,0.78 0.78,0.78 0.78,1.92 0,1.14 -0.78,1.86 -0.78,0.72 -1.98,0.72 l -0.3,0 q -2.88,0 -5.28,1.44 -2.4,1.38 -4.02,3.84 l 0,18.24 q 0,1.14 -0.84,1.92 -0.78,0.78 -1.92,0.78 z" />
      <path
         id="path3357"
         style="font-style:normal;font-variant:normal;font-weight:normal;font-stretch:normal;font-size:60px;line-height:89.99999762%;font-family:'Varela Round';-inkscape-font-specification:'Varela Round, Normal';text-align:start;writing-mode:lr-tb;text-anchor:start"
         d="m 15.457143,990.51936 q -1.08,0 -1.98,-0.6 -0.9,-0.66 -1.32,-1.62 l -10.44,-24.96 q -0.3,-0.72 -0.3,-1.26 0,-1.14 0.78,-1.92 0.78,-0.84 1.92,-0.84 0.78,0 1.44,0.48 0.72,0.42 1.02,1.08 l 9.18,23.28 9.18,-23.28 q 0.3,-0.66 0.96,-1.08 0.72,-0.48 1.5,-0.48 1.14,0 1.92,0.84 0.78,0.78 0.78,1.92 0,0.54 -0.3,1.26 l -10.44,24.96 q -0.42,0.96 -1.32,1.62 -0.9,0.6 -1.98,0.6 l -0.6,0 z" />
      <path
         id="path3359"
         style="font-style:normal;font-variant:normal;font-weight:normal;font-stretch:normal;font-size:60px;line-height:89.99999762%;font-family:'Varela Round';-inkscape-font-specification:'Varela Round, Normal';text-align:start;writing-mode:lr-tb;text-anchor:start"
         d="m 49.566206,990.81936 q -7.32,0 -11.46,-4.14 -4.08,-4.2 -4.08,-11.76 0,-4.26 1.56,-7.86 1.56,-3.6 4.8,-5.82 3.24,-2.22 7.98,-2.22 4.44,0 7.68,2.1 3.24,2.04 4.92,5.52 1.680004,3.42 1.680004,7.5 0,1.14 -0.780004,1.92 -0.72,0.78 -1.98,0.78 l -20.34,0 q 0.48,4.2 3.12,6.54 2.64,2.34 7.38,2.34 2.52,0 4.38,-0.48 1.92,-0.48 3.72,-1.38 0.48,-0.24 1.08,-0.24 0.96,0 1.68,0.66 0.72,0.66 0.72,1.68 0,1.32 -1.56,2.22 -2.34,1.32 -4.62,1.98 -2.28,0.66 -5.88,0.66 z m 7.68,-18.42 q -0.18,-2.94 -1.56,-4.92 -1.32,-1.98 -3.3,-2.88 -1.98,-0.96 -4.02,-0.96 -2.04,0 -4.02,0.96 -1.98,0.9 -3.3,2.88 -1.32,1.98 -1.5,4.92 l 17.7,0 z" />
      <path
         id="path3361"
         style="font-style:normal;font-variant:normal;font-weight:normal;font-stretch:normal;font-size:60px;line-height:89.99999762%;font-family:'Varela Round';-inkscape-font-specification:'Varela Round, Normal';text-align:start;writing-mode:lr-tb;text-anchor:start"
         d="m 84.03058,990.81936 q -4.32,0 -7.98,-1.92 -3.66,-1.92 -5.88,-5.52 -2.16,-3.6 -2.16,-8.46 0,-4.86 2.16,-8.46 2.22,-3.6 5.88,-5.52 3.66,-1.92 7.98,-1.92 3.18,0 5.46,0.84 2.34,0.78 4.32,2.04 1.2,0.78 1.2,2.1 0,0.9 -0.72,1.68 -0.66,0.72 -1.56,0.72 -0.66,0 -1.32,-0.36 -1.98,-1.02 -3.42,-1.44 -1.38,-0.48 -3.48,-0.48 -5.16,0 -8.1,3 -2.94,2.94 -2.94,7.8 0,4.86 2.94,7.86 2.94,2.94 8.1,2.94 2.1,0 3.48,-0.42 1.44,-0.48 3.42,-1.5 0.66,-0.36 1.32,-0.36 0.9,0 1.56,0.78 0.72,0.72 0.72,1.62 0,1.32 -1.2,2.1 -1.98,1.26 -4.32,2.1 -2.28,0.78 -5.46,0.78 z" />
      <path
         id="path3363"
         style="font-style:normal;font-variant:normal;font-weight:normal;font-stretch:normal;font-size:60px;line-height:89.99999762%;font-family:'Varela Round';-inkscape-font-specification:'Varela Round, Normal';text-align:start;writing-mode:lr-tb;text-anchor:start"
         d="m 112.42277,990.81936 q -8.76,0 -8.76,-7.92 l 0,-18.6 -4.26,0 q -0.48,0 -0.84,-0.3 -0.3,-0.36 -0.3,-0.84 0,-0.6 0.54,-1.02 l 8.16,-7.98 q 0.54,-0.54 1.02,-0.54 0.48,0 0.78,0.36 0.36,0.36 0.36,0.84 l 0,4.8 6.78,0 q 1.02,0 1.68,0.66 0.66,0.66 0.66,1.68 0,0.96 -0.66,1.68 -0.66,0.66 -1.68,0.66 l -6.78,0 0,18.12 q 0,2.34 1.08,3 1.14,0.6 2.82,0.6 1.2,0 2.4,-0.36 0.24,-0.06 0.48,-0.12 0.3,-0.06 0.72,-0.06 0.84,0 1.5,0.66 0.66,0.6 0.66,1.5 0,1.38 -1.38,2.1 -2.34,1.08 -4.98,1.08 z" />
      <path
         id="path3365"
         style="font-style:normal;font-variant:normal;font-weight:normal;font-stretch:normal;font-size:60px;line-height:89.99999762%;font-family:'Varela Round';-inkscape-font-specification:'Varela Round, Normal';text-align:start;writing-mode:lr-tb;text-anchor:start"
         d="m 137.86277,990.81936 q -4.62,0 -8.1,-1.98 -3.48,-1.98 -5.4,-5.58 -1.86,-3.66 -1.86,-8.34 0,-4.68 1.86,-8.28 1.92,-3.66 5.4,-5.64 3.48,-1.98 8.1,-1.98 4.56,0 8.04,1.98 3.48,1.98 5.4,5.64 1.92,3.6 1.92,8.28 0,4.68 -1.92,8.34 -1.92,3.6 -5.4,5.58 -3.48,1.98 -8.04,1.98 z m 0,-4.98 q 2.46,0 4.68,-1.14 2.28,-1.14 3.72,-3.6 1.5,-2.46 1.5,-6.24 0,-3.72 -1.5,-6.18 -1.44,-2.46 -3.72,-3.54 -2.22,-1.14 -4.68,-1.14 -2.52,0 -4.8,1.14 -2.22,1.08 -3.66,3.54 -1.44,2.46 -1.44,6.18 0,3.78 1.44,6.24 1.44,2.46 3.66,3.6 2.28,1.14 4.8,1.14 z" />
      <path
         id="path3367"
         style="font-style:normal;font-variant:normal;font-weight:normal;font-stretch:normal;font-size:60px;line-height:89.99999762%;font-family:'Varela Round';-inkscape-font-specification:'Varela Round, Normal';text-align:start;writing-mode:lr-tb;text-anchor:start"
         d="m 163.62527,990.51936 q -1.14,0 -1.92,-0.78 -0.78,-0.78 -0.78,-1.92 l 0,-25.74 q 0,-1.14 0.78,-1.92 0.78,-0.84 1.92,-0.84 1.14,0 1.92,0.84 0.84,0.78 0.84,1.92 l 0,2.58 q 4.2,-5.64 9.42,-5.64 l 0.3,0 q 1.14,0 1.86,0.78 0.78,0.78 0.78,1.92 0,1.14 -0.78,1.86 -0.78,0.72 -1.98,0.72 l -0.3,0 q -2.88,0 -5.28,1.44 -2.4,1.38 -4.02,3.84 l 0,18.24 q 0,1.14 -0.84,1.92 -0.78,0.78 -1.92,0.78 z" />
      <path
         id="path3369"
         style="font-style:normal;font-variant:normal;font-weight:normal;font-stretch:normal;font-size:60px;line-height:89.99999762%;font-family:'Varela Round';-inkscape-font-specification:'Varela Round, Normal';text-align:start;writing-mode:lr-tb;text-anchor:start"
         d="m 15.157143,1044.8194 q -8.76,0 -8.76,-7.92 l 0,-18.6 -4.26,0 q -0.48,0 -0.84,-0.3 -0.3,-0.36 -0.3,-0.84 0,-0.6 0.54,-1.02 l 8.16,-7.98 q 0.54,-0.54 1.02,-0.54 0.48,0 0.78,0.36 0.36,0.36 0.36,0.84 l 0,4.8 6.78,0 q 1.02,0 1.68,0.66 0.66,0.66 0.66,1.68 0,0.96 -0.66,1.68 -0.66,0.66 -1.68,0.66 l -6.78,0 0,18.12 q 0,2.34 1.08,3 1.14,0.6 2.82,0.6 1.2,0 2.4,-0.36 0.24,-0.06 0.48,-0.12 0.3,-0.06 0.72,-0.06 0.84,0 1.5,0.66 0.66,0.6 0.66,1.5 0,1.38 -1.38,2.1 -2.34,1.08 -4.98,1.08 z" />
      <path
         id="path3371"
         style="font-style:normal;font-variant:normal;font-weight:normal;font-stretch:normal;font-size:60px;line-height:89.99999762%;font-family:'Varela Round';-inkscape-font-specification:'Varela Round, Normal';text-align:start;writing-mode:lr-tb;text-anchor:start"
         d="m 40.777143,1044.8194 q -7.32,0 -11.46,-4.14 -4.08,-4.2 -4.08,-11.76 0,-4.26 1.56,-7.86 1.56,-3.6 4.8,-5.82 3.24,-2.22 7.98,-2.22 4.44,0 7.68,2.1 3.24,2.04 4.92,5.52 1.68,3.42 1.68,7.5 0,1.14 -0.78,1.92 -0.72,0.78 -1.98,0.78 l -20.34,0 q 0.48,4.2 3.12,6.54 2.64,2.34 7.38,2.34 2.52,0 4.38,-0.48 1.92,-0.48 3.72,-1.38 0.48,-0.24 1.08,-0.24 0.96,0 1.68,0.66 0.72,0.66 0.72,1.68 0,1.32 -1.56,2.22 -2.34,1.32 -4.62,1.98 -2.28,0.66 -5.88,0.66 z m 7.68,-18.42 q -0.18,-2.94 -1.56,-4.92 -1.32,-1.98 -3.3,-2.88 -1.98,-0.96 -4.02,-0.96 -2.04,0 -4.02,0.96 -1.98,0.9 -3.3,2.88 -1.32,1.98 -1.5,4.92 l 17.7,0 z" />
      <path
         id="path3373"
         style="font-style:normal;font-variant:normal;font-weight:normal;font-stretch:normal;font-size:60px;line-height:89.99999762%;font-family:'Varela Round';-inkscape-font-specification:'Varela Round, Normal';text-align:start;writing-mode:lr-tb;text-anchor:start"
         d="m 63.78152,1044.5194 q -1.14,0 -1.920002,-0.78 -0.78,-0.78 -0.78,-1.92 l 0,-25.74 q 0,-1.14 0.78,-1.92 0.780002,-0.84 1.920002,-0.84 1.14,0 1.92,0.84 0.84,0.78 0.84,1.92 l 0,2.46 q 2.28,-2.52 4.92,-4.02 2.64,-1.5 6.24,-1.5 3.3,0 5.7,1.56 2.46,1.56 3.72,4.26 1.32,2.7 1.32,5.94 l 0,17.04 q 0,1.14 -0.84,1.92 -0.78,0.78 -1.92,0.78 -1.14,0 -1.92,-0.78 -0.78,-0.78 -0.78,-1.92 l 0,-16.44 q 0,-7.32 -6.6,-7.32 -3,0 -5.4,1.56 -2.34,1.56 -4.44,4.2 l 0,18 q 0,1.14 -0.84,1.92 -0.78,0.78 -1.92,0.78 z" />
      <path
         id="path3375"
         style="font-style:normal;font-variant:normal;font-weight:normal;font-stretch:normal;font-size:60px;line-height:89.99999762%;font-family:'Varela Round';-inkscape-font-specification:'Varela Round, Normal';text-align:start;writing-mode:lr-tb;text-anchor:start"
         d="m 107.42683,1044.8194 q -6,0 -10.92,-2.7 -1.02,-0.72 -1.02,-1.98 0,-0.96 0.66,-1.68 0.66,-0.72 1.68,-0.72 0.54,0 1.08,0.24 1.92,0.84 3.84,1.32 1.92,0.48 4.32,0.48 6.66,0 6.66,-4.26 0,-1.38 -1.56,-2.1 -1.5,-0.72 -4.98,-1.62 -3.54,-0.84 -5.88,-1.74 -2.28,-0.9 -3.96,-2.7 -1.62,-1.86 -1.62,-4.86 0,-4.2 3,-6.84 3.06,-2.64 8.7,-2.64 4.62,0 8.7,1.5 0.84,0.24 1.26,0.9 0.48,0.66 0.48,1.38 0,0.96 -0.72,1.68 -0.66,0.72 -1.68,0.72 -0.3,0 -0.78,-0.12 -3.48,-1.08 -6.84,-1.08 -3.24,0 -5.1,1.2 -1.8,1.14 -1.8,3 0,1.8 1.68,2.64 1.68,0.84 5.22,1.62 3.54,0.9 5.76,1.8 2.22,0.84 3.78,2.7 1.62,1.86 1.62,4.98 0,3.84 -3.06,6.36 -3,2.52 -8.52,2.52 z" />
      <path
         id="path3377"
         style="font-style:normal;font-variant:normal;font-weight:normal;font-stretch:normal;font-size:60px;line-height:89.99999762%;font-family:'Varela Round';-inkscape-font-specification:'Varela Round, Normal';text-align:start;writing-mode:lr-tb;text-anchor:start"
         d="m 139.85496,1044.8194 q -4.62,0 -8.1,-1.98 -3.48,-1.98 -5.4,-5.58 -1.86,-3.66 -1.86,-8.34 0,-4.68 1.86,-8.28 1.92,-3.66 5.4,-5.64 3.48,-1.98 8.1,-1.98 4.56,0 8.04,1.98 3.48,1.98 5.4,5.64 1.92,3.6 1.92,8.28 0,4.68 -1.92,8.34 -1.92,3.6 -5.4,5.58 -3.48,1.98 -8.04,1.98 z m 0,-4.98 q 2.46,0 4.68,-1.14 2.28,-1.14 3.72,-3.6 1.5,-2.46 1.5,-6.24 0,-3.72 -1.5,-6.18 -1.44,-2.46 -3.72,-3.54 -2.22,-1.14 -4.68,-1.14 -2.52,0 -4.8,1.14 -2.22,1.08 -3.66,3.54 -1.44,2.46 -1.44,6.18 0,3.78 1.44,6.24 1.44,2.46 3.66,3.6 2.28,1.14 4.8,1.14 z" />
      <path
         id="path3379"
         style="font-style:normal;font-variant:normal;font-weight:normal;font-stretch:normal;font-size:60px;line-height:89.99999762%;font-family:'Varela Round';-inkscape-font-specification:'Varela Round, Normal';text-align:start;writing-mode:lr-tb;text-anchor:start"
         d="m 165.61746,1044.5194 q -1.14,0 -1.92,-0.78 -0.78,-0.78 -0.78,-1.92 l 0,-25.74 q 0,-1.14 0.78,-1.92 0.78,-0.84 1.92,-0.84 1.14,0 1.92,0.84 0.84,0.78 0.84,1.92 l 0,2.58 q 4.2,-5.64 9.42,-5.64 l 0.3,0 q 1.14,0 1.86,0.78 0.78,0.78 0.78,1.92 0,1.14 -0.78,1.86 -0.78,0.72 -1.98,0.72 l -0.3,0 q -2.88,0 -5.28,1.44 -2.4,1.38 -4.02,3.84 l 0,18.24 q 0,1.14 -0.84,1.92 -0.78,0.78 -1.92,0.78 z" />
    </g>
  </g>
</svg>
