<?xml version="1.0" encoding="UTF-8" standalone="no"?>
<svg
   xmlns:dc="http://purl.org/dc/elements/1.1/"
   xmlns:cc="http://creativecommons.org/ns#"
   xmlns:rdf="http://www.w3.org/1999/02/22-rdf-syntax-ns#"
   xmlns:svg="http://www.w3.org/2000/svg"
   xmlns="http://www.w3.org/2000/svg"
   viewBox="0 0 39.529407 15.654547"
   height="15.654547"
   width="39.529408"
   xml:space="preserve"
   version="1.1"
   id="svg4155"><metadata
     id="metadata4161"><rdf:RDF><cc:Work
         rdf:about=""><dc:format>image/svg+xml</dc:format><dc:type
           rdf:resource="http://purl.org/dc/dcmitype/StillImage" /><dc:title></dc:title></cc:Work></rdf:RDF></metadata><defs
     id="defs4159" /><g
     transform="matrix(1.25,0,0,-1.25,-35.918501,115.68501)"
     id="g4163"><g
       transform="matrix(0.01962534,0,0,0.01962534,23.095499,74.385146)"
       id="g4165"><path
         id="path4167"
         style="fill:#a7a5a6;fill-opacity:1;fill-rule:nonzero;stroke:none"
         d="m 1483.2,747.242 c 0,-111.941 85.87,-144.222 161.63,-178.015 60.71,-27.082 114.35,-50.461 114.35,-105.508 0,-49.336 -27.64,-72.317 -84.39,-72.317 -76.09,0 -156.69,99.551 -177.9,122.453 l -13.69,0 0,-131.464 c 0,0 74.96,-86.789 192.41,-86.789 117.76,0 223.1,65.246 223.1,179.015 0,131.481 -124.72,186.16 -201.38,221.035 -56.97,25.914 -66.24,33.399 -66.24,56.684 0,24.68 15.98,36.113 43.2,36.113 l -1.77,132.098 c -114.26,0 -189.32,-79.504 -189.32,-173.305" /><path
         id="path4169"
         style="fill:#a7a5a6;fill-opacity:1;fill-rule:nonzero;stroke:none"
         d="m 1164.04,689.195 -150.88,0 0,-182.949 c 0,-133.133 79.5,-212.625 212.63,-212.625 131.44,0 206.83,77.5 206.83,212.625 l 0,12.317 -150.86,0 0,-12.317 c 0,-80.691 -31.97,-82.344 -53.29,-82.344 -0.92,0 -1.81,0 -2.68,0 -29.07,0 -61.75,1.504 -61.75,82.344 l 0,182.949" /><path
         id="path4171"
         style="fill:#a7a5a6;fill-opacity:1;fill-rule:nonzero;stroke:none"
         d="m 737.262,291.871 157.136,0 0,227.813 -157.136,0 0,-227.813" /><path
         id="path4173"
         style="fill:#a7a5a6;fill-opacity:1;fill-rule:nonzero;stroke:none"
         d="m 446.859,924.832 0,-633.887 143.875,0 0,476.274 124.938,0 0,157.613 -268.813,0" /><path
         id="path4175"
         style="fill:#221d1e;fill-opacity:1;fill-rule:nonzero;stroke:none"
         d="m 955.77,827.664 c -31.747,0 -55.54,-6.031 -72.774,-20.625 -8.574,-7.266 -15.203,-16.566 -20.023,-27.711 -4.817,-11.16 -7.875,-24.152 -9.551,-39.137 l -0.012,-0.078 0,0.024 c -0.055,-0.614 -0.066,-1.102 -0.094,-1.883 -0.187,-5.172 -0.367,-20.164 -0.503,-30.609 -0.071,-5.684 -0.137,-23.047 -0.211,-26.832 l -0.11,-6.375 96.492,0 0,-85.016 -97.004,0 0,-285 -102.171,0 0,287.336 -85.356,0 0,82.68 86.274,0 0.148,6.117 c 0.109,4.504 0.219,22.738 0.336,28.785 0.18,9.531 0.324,17.461 0.488,23.328 0.067,2.93 0.145,5.352 0.223,7.168 0.07,1.793 0.172,3.105 0.211,3.355 l 0,0.02 c 6.93,54.043 28.879,95.844 63.375,124.43 34.515,28.554 81.59,44.078 140.262,44.086 l 0,-84.063 z m 0.382,96.606 C 895.324,924.289 844.711,908.098 807.508,877.297 770.281,846.531 746.859,801.324 739.684,744.793 l 0,0.02 c -0.137,-1.149 -0.207,-2.469 -0.293,-4.438 -0.25,-5.797 -0.461,-16.496 -0.723,-30.801 -0.125,-6.187 -0.328,-22.594 -0.328,-22.594 l -86.434,0 0,-107.761 85.356,0 0,-287.356 127.273,0 0,285.008 96.992,0 0,110.109 -96.371,0 c 0,0 0.129,14.922 0.199,20.497 0.083,5.964 0.172,13.429 0.27,19.656 0.047,3.105 0.098,5.914 0.145,8.043 0.035,1.051 0.054,1.957 0.085,2.625 l 0.028,0.801 0.019,0.23 0,0.027 -0.007,-0.058 c 1.57,14.097 4.425,25.883 8.597,35.543 6.317,14.476 15.317,24.222 28.387,30.871 13.082,6.609 30.582,9.914 53.273,9.906 l 5.883,0 6.274,0 0,109.149 -12.157,0" /><path
         id="path4177"
         style="fill:#221d1e;fill-opacity:1;fill-rule:nonzero;stroke:none"
         d="m 1225.79,293.766 0,6.281 c -65.36,0.019 -116.66,19.433 -151.81,54.551 -35.1,35.136 -54.51,86.445 -54.54,151.816 l 0,200.16 c 0.03,65.364 19.44,116.676 54.54,151.809 35.15,35.117 86.45,54.523 151.81,54.555 64.54,-0.04 114.34,-18.934 148.21,-53.747 33.87,-34.824 52.33,-86.168 52.35,-152.617 l -102.17,0 c -0.05,41.813 -6.64,72.227 -22.88,92.817 -8.12,10.246 -18.66,17.761 -31.3,22.535 -12.63,4.785 -27.32,6.937 -44.21,6.937 -17.47,0 -32.79,-2.289 -46.05,-7.234 -19.9,-7.356 -34.92,-20.992 -44.35,-40.316 -9.49,-19.325 -13.76,-44.079 -13.77,-74.739 l 0,-200.16 c 0.02,-41.16 7.84,-72.305 25.34,-93.562 8.74,-10.586 19.88,-18.508 33.08,-23.645 13.22,-5.137 28.47,-7.566 45.75,-7.566 16.9,0.007 31.6,2.207 44.25,7.105 19.03,7.285 33.09,21.02 41.7,40.637 8.68,19.629 12.41,44.969 12.44,77.031 l 102.17,0 c -0.02,-66.457 -18.48,-117.793 -52.35,-152.617 -33.87,-34.817 -83.67,-53.723 -148.21,-53.75 l 0,-6.281 0,-6.278 c 66.9,-0.031 120.53,19.825 157.2,57.559 36.7,37.707 55.93,92.676 55.91,161.367 l 0,5.867 0,6.282 -127.27,0 0,-12.149 c 0.04,-41.484 -6.72,-69.746 -20.21,-86.973 -6.74,-8.64 -15.15,-14.812 -25.9,-19.003 -10.75,-4.172 -23.92,-6.25 -39.73,-6.25 -16.11,0 -29.79,2.285 -41.19,6.718 -17.07,6.707 -29.24,18.02 -37.7,35.227 -8.4,17.215 -12.74,40.547 -12.73,70.281 l 0,200.16 c -0.02,39.41 7.5,66.856 22.08,84.047 7.31,8.645 16.42,14.961 27.88,19.254 11.45,4.27 25.29,6.445 41.66,6.445 15.82,0 29.01,-2.047 39.77,-6.132 16.11,-6.184 27.09,-16.579 34.73,-33.278 7.59,-16.695 11.36,-39.933 11.34,-70.336 l 0,-5.883 0,-6.281 127.27,0 0,12.164 c 0.02,68.68 -19.21,123.656 -55.91,161.367 -36.67,37.719 -90.3,57.575 -157.2,57.539 -67.77,0.036 -122.78,-20.304 -160.67,-58.222 -37.92,-37.895 -58.26,-92.91 -58.23,-160.684 l 0,-200.16 c -0.03,-67.773 20.31,-122.793 58.23,-160.684 37.89,-37.921 92.9,-58.261 160.67,-58.242 l 0,6.278" /><path
         id="path4179"
         style="fill:#221d1e;fill-opacity:1;fill-rule:nonzero;stroke:none"
         d="m 287.348,924.832 0,-127.156 146.968,0 0,-506.731 126.547,0 0,6.27 0,499.867 154.809,0 0,127.75 -428.324,0 z m 12.543,-12.543 403.234,0 0,-102.66 -154.809,0 0,-506.137 -101.453,0 0,506.731 -146.972,0 0,102.066" /><path
         id="path4181"
         style="fill:#221d1e;fill-opacity:1;fill-rule:nonzero;stroke:none"
         d="m 1675.61,293.621 0,6.277 c -57.15,-0.007 -104.09,21.125 -136.83,42.375 -16.36,10.625 -29.13,21.25 -37.78,29.2 -4.33,3.965 -7.62,7.265 -9.81,9.55 -1.1,1.141 -1.93,2.04 -2.47,2.625 l -0.6,0.665 -0.17,0.199 -4.74,-4.106 6.27,0 0,125.196 7.41,0 0,6.281 -4.61,-4.278 c 5.16,-5.546 14.26,-16.164 26.07,-28.808 17.75,-18.992 41.69,-42.676 68.68,-61.785 27,-19.067 57.13,-33.789 87.76,-33.852 29.14,0.012 51.83,5.832 67.53,19.153 7.83,6.628 13.71,15.097 17.51,25.07 3.82,9.988 5.62,21.441 5.62,34.351 0.02,14.786 -3.65,27.786 -10.16,39.043 -9.79,16.914 -25.59,29.817 -44.37,41.086 -18.82,11.258 -40.78,20.965 -63.54,31.114 -38.01,16.921 -77.87,33.343 -107.71,58.75 -14.93,12.707 -27.4,27.57 -36.2,45.949 -8.79,18.394 -13.98,40.387 -13.99,67.578 0.02,45.223 18.05,86.844 49.87,117.297 31.84,30.422 77.5,49.715 133.17,49.73 63.03,-0.039 104.32,-22.062 130.23,-43.976 12.94,-10.953 21.99,-21.918 27.75,-30.082 2.89,-4.082 4.95,-7.469 6.29,-9.793 0.66,-1.164 1.15,-2.067 1.45,-2.66 l 0.32,-0.649 0.08,-0.152 5.69,2.672 -6.27,0 0,-120.477 -5.55,0.07 -0.08,-6.273 4.89,3.922 c -5.21,6.476 -11.96,17.562 -20.38,30.297 -12.68,19.121 -29.32,42.148 -52.35,60.554 -23,18.411 -52.66,32.114 -90.3,32.086 -15.44,0 -28.44,-2.168 -39.31,-6.203 -16.3,-6.019 -27.7,-16.469 -34.58,-29.133 -6.91,-12.656 -9.49,-27.281 -9.5,-42.207 -0.01,-14.152 2.9,-26.054 8.41,-36.082 8.27,-15.066 21.89,-25.398 38.28,-34.347 16.45,-8.957 35.93,-16.711 57.13,-26.36 38.37,-17.422 78.67,-35.59 108.95,-62.804 15.15,-13.606 27.81,-29.418 36.76,-48.633 8.93,-19.211 14.19,-41.875 14.2,-69.414 -0.04,-55.696 -16.44,-98.52 -46.57,-127.66 -30.16,-29.129 -74.68,-45.055 -132.45,-45.079 l 0,-6.277 0,-6.277 c 59.98,-0.024 108.11,16.676 141.16,48.609 33.07,31.914 50.43,78.606 50.4,136.684 0,29.129 -5.61,53.765 -15.36,74.715 -14.63,31.457 -38.44,54.378 -65.53,72.582 -27.12,18.234 -57.63,31.894 -86.36,44.976 -28.7,13.024 -53.55,22.516 -70.38,34.664 -8.43,6.067 -14.84,12.664 -19.22,20.653 -4.38,8.007 -6.85,17.57 -6.88,30.05 0.01,18.032 4.23,34.145 14.65,45.625 5.25,5.778 12.1,10.539 21.26,13.95 9.17,3.414 20.67,5.418 34.94,5.418 23.06,-0.008 42.49,-5.497 59.27,-14.168 25.13,-13 44.27,-33.379 59.26,-53.348 7.48,-9.988 13.93,-19.848 19.6,-28.598 5.67,-8.758 10.53,-16.379 15.12,-22.121 l 1.85,-2.316 21.21,-0.27 0,134.598 -0.59,1.262 c -0.27,0.535 -11.38,24.023 -39.14,47.582 -27.73,23.547 -72.33,46.98 -138.35,46.941 -58.58,0.02 -107.57,-20.441 -141.84,-53.215 -34.26,-32.758 -53.76,-77.781 -53.75,-126.363 0,-28.781 5.54,-52.801 15.22,-72.988 14.51,-30.332 38.12,-51.782 64.9,-68.664 26.81,-16.907 56.9,-29.446 85.22,-42.082 30.38,-13.512 58.62,-26.082 78.68,-41.512 10.05,-7.703 18.01,-16.055 23.46,-25.496 5.45,-9.465 8.48,-20.024 8.5,-32.778 0,-11.746 -1.65,-21.668 -4.8,-29.863 -4.75,-12.281 -12.58,-20.894 -24.51,-26.973 -11.91,-6.023 -28.15,-9.207 -48.81,-9.199 -17.64,-0.008 -36.02,5.821 -54.01,15.207 -27,14.051 -52.92,36.028 -73.95,56.641 -21.08,20.652 -37.17,39.773 -45.33,48.594 l -1.87,2 -22.7,0 0,-140.067 1.53,-1.765 c 0.27,-0.305 19.37,-22.395 53.49,-44.551 34.1,-22.153 83.36,-44.406 143.66,-44.414 l 0,6.277" /></g></g></svg>